<svg width="16" height="16" viewBox="0 0 16 16" fill="none" xmlns="http://www.w3.org/2000/svg">
<path d="M7.99935 7.99935C7.26602 7.99935 6.63824 7.73824 6.11602 7.21602C5.59379 6.69379 5.33268 6.06602 5.33268 5.33268C5.33268 4.59935 5.59379 3.97157 6.11602 3.44935C6.63824 2.92713 7.26602 2.66602 7.99935 2.66602C8.73268 2.66602 9.36046 2.92713 9.88268 3.44935C10.4049 3.97157 10.666 4.59935 10.666 5.33268C10.666 6.06602 10.4049 6.69379 9.88268 7.21602C9.36046 7.73824 8.73268 7.99935 7.99935 7.99935ZM2.66602 13.3327V11.466C2.66602 11.0882 2.76335 10.7411 2.95802 10.4247C3.15268 10.1082 3.4109 9.86646 3.73268 9.69935C4.42157 9.3549 5.12157 9.09668 5.83268 8.92468C6.54379 8.75268 7.26602 8.66646 7.99935 8.66602C8.73268 8.66557 9.4549 8.75179 10.166 8.92468C10.8771 9.09757 11.5771 9.35579 12.266 9.69935C12.5882 9.86602 12.8467 10.1078 13.0413 10.4247C13.236 10.7416 13.3331 11.0887 13.3327 11.466V13.3327H2.66602Z" fill="#8C8C8C"/>
</svg>
