<svg width="16" height="16" viewBox="0 0 16 16" fill="none" xmlns="http://www.w3.org/2000/svg">
<path d="M8.00065 14.6673C7.07843 14.6673 6.21176 14.4922 5.40065 14.142C4.58954 13.7918 3.88399 13.3169 3.28399 12.7173C2.68399 12.1178 2.2091 11.4122 1.85932 10.6007C1.50954 9.7891 1.33443 8.92243 1.33399 8.00065C1.33354 7.07887 1.50865 6.21221 1.85932 5.40065C2.20999 4.5891 2.68487 3.88354 3.28399 3.28398C3.8831 2.68443 4.58865 2.20954 5.40065 1.85932C6.21265 1.5091 7.07932 1.33398 8.00065 1.33398C8.92199 1.33398 9.78865 1.5091 10.6007 1.85932C11.4127 2.20954 12.1182 2.68443 12.7173 3.28398C13.3164 3.88354 13.7915 4.5891 14.1427 5.40065C14.4938 6.21221 14.6687 7.07887 14.6673 8.00065V8.96732C14.6673 9.62287 14.4424 10.1813 13.9927 10.6427C13.5429 11.104 12.99 11.3344 12.334 11.334C11.9451 11.334 11.5784 11.2507 11.234 11.084C10.8895 10.9173 10.6007 10.6784 10.3673 10.3673C10.0451 10.6895 9.6811 10.9313 9.27532 11.0927C8.86954 11.254 8.44465 11.3344 8.00065 11.334C7.07843 11.334 6.29243 11.0089 5.64265 10.3587C4.99287 9.70843 4.66776 8.92243 4.66732 8.00065C4.66687 7.07887 4.99199 6.29287 5.64265 5.64265C6.29332 4.99243 7.07932 4.66732 8.00065 4.66732C8.92199 4.66732 9.70821 4.99243 10.3593 5.64265C11.0104 6.29287 11.3353 7.07887 11.334 8.00065V8.96732C11.334 9.25621 11.4284 9.50065 11.6173 9.70065C11.8062 9.90065 12.0451 10.0007 12.334 10.0007C12.6229 10.0007 12.8618 9.90065 13.0507 9.70065C13.2395 9.50065 13.334 9.25621 13.334 8.96732V8.00065C13.334 6.51176 12.8173 5.25065 11.784 4.21732C10.7507 3.18398 9.48954 2.66732 8.00065 2.66732C6.51176 2.66732 5.25065 3.18398 4.21732 4.21732C3.18399 5.25065 2.66732 6.51176 2.66732 8.00065C2.66732 9.48954 3.18399 10.7507 4.21732 11.784C5.25065 12.8173 6.51176 13.334 8.00065 13.334H10.6673C10.8562 13.334 11.0147 13.398 11.1427 13.526C11.2707 13.654 11.3344 13.8122 11.334 14.0007C11.3335 14.1891 11.2695 14.3475 11.142 14.476C11.0144 14.6044 10.8562 14.6682 10.6673 14.6673H8.00065ZM8.00065 10.0007C8.55621 10.0007 9.02843 9.80621 9.41732 9.41732C9.80621 9.02843 10.0007 8.55621 10.0007 8.00065C10.0007 7.4451 9.80621 6.97287 9.41732 6.58398C9.02843 6.1951 8.55621 6.00065 8.00065 6.00065C7.4451 6.00065 6.97287 6.1951 6.58399 6.58398C6.1951 6.97287 6.00065 7.4451 6.00065 8.00065C6.00065 8.55621 6.1951 9.02843 6.58399 9.41732C6.97287 9.80621 7.4451 10.0007 8.00065 10.0007Z" fill="#8C8C8C"/>
</svg>
