<svg width="338" height="108" viewBox="0 0 338 108" fill="none" xmlns="http://www.w3.org/2000/svg">
<path d="M187.226 45.0583H179.385C179.385 43.7445 179.171 42.5805 178.746 41.5665C178.319 40.5383 177.723 39.6672 176.956 38.9532C176.189 38.2392 175.28 37.7036 174.229 37.3466C173.178 36.9754 172.012 36.7897 170.734 36.7897C168.292 36.7897 166.019 37.411 163.916 38.6535C161.814 39.8958 160.032 41.7026 158.568 44.0732C157.105 46.4295 156.089 49.2932 155.521 52.6632C154.995 55.948 155.045 58.6971 155.67 60.9105C156.309 63.1242 157.417 64.795 158.994 65.9232C160.571 67.0373 162.489 67.5943 164.747 67.5943C166.125 67.5943 167.446 67.423 168.71 67.0802C169.974 66.7232 171.139 66.202 172.204 65.5163C173.284 64.8165 174.229 63.967 175.038 62.9672C175.862 61.9676 176.502 60.8323 176.956 59.5611H184.903C184.25 61.6461 183.291 63.6097 182.027 65.452C180.763 67.2798 179.243 68.8938 177.467 70.2934C175.692 71.6786 173.703 72.7641 171.502 73.5495C169.3 74.335 166.927 74.7277 164.385 74.7277C160.478 74.7277 157.134 73.8135 154.35 71.9857C151.579 70.1434 149.59 67.5086 148.383 64.081C147.176 60.6392 146.962 56.5191 147.744 51.7204C148.525 47.0505 150.031 43.0731 152.261 39.7886C154.506 36.5039 157.24 33.9975 160.464 32.2695C163.703 30.5273 167.191 29.6562 170.926 29.6562C173.399 29.6562 175.642 29.9991 177.66 30.6844C179.691 31.3701 181.431 32.3767 182.879 33.7049C184.328 35.0186 185.429 36.6326 186.182 38.5463C186.95 40.4459 187.298 42.6165 187.226 45.0585L187.226 45.0583ZM200.134 74.7705C196.909 74.7705 194.225 74.0565 192.079 72.6282C189.949 71.2002 188.45 69.1938 187.584 66.6086C186.717 64.0237 186.561 61.0248 187.115 57.6113C187.669 54.241 188.776 51.292 190.439 48.7641C192.115 46.2362 194.224 44.2796 196.766 42.8944C199.324 41.4948 202.186 40.795 205.353 40.795C208.578 40.795 211.255 41.5163 213.386 42.9585C215.518 44.3865 217.015 46.3933 217.882 48.9782C218.763 51.5631 218.927 54.5764 218.373 58.0182C217.832 61.3744 216.717 64.3092 215.027 66.8227C213.351 69.3362 211.242 71.2927 208.699 72.6923C206.157 74.0775 203.3 74.7702 200.133 74.7702L200.134 74.7705ZM200.772 68.5581C202.563 68.5581 204.133 68.0726 205.482 67.1014C206.845 66.1161 207.961 64.795 208.827 63.1384C209.707 61.4674 210.319 59.611 210.659 57.5688C210.972 55.5981 210.979 53.8128 210.68 52.2133C210.382 50.5995 209.743 49.3213 208.763 48.3787C207.797 47.422 206.454 46.9436 204.736 46.9436C202.946 46.9436 201.362 47.4435 199.984 48.4431C198.621 49.4284 197.506 50.7566 196.639 52.4276C195.773 54.0844 195.176 55.9335 194.849 57.976C194.523 59.9467 194.508 61.732 194.806 63.3315C195.105 64.9311 195.745 66.202 196.725 67.1445C197.704 68.0871 199.054 68.5581 200.772 68.5581ZM229.587 54.8481L226.433 74.1277H218.699L224.153 41.2237H231.547L230.61 46.8149H231.014C232.037 44.9726 233.471 43.5086 235.318 42.4234C237.165 41.338 239.318 40.7953 241.775 40.7953C244.005 40.7953 245.88 41.2807 247.399 42.2519C248.919 43.2086 249.998 44.6153 250.638 46.4721C251.277 48.3143 251.376 50.5493 250.937 53.1771L247.442 74.1277H239.729L242.989 54.3768C243.359 52.1917 243.082 50.4782 242.158 49.2356C241.249 47.9789 239.786 47.3505 237.769 47.3505C236.42 47.3505 235.177 47.6505 234.041 48.2502C232.903 48.8358 231.945 49.6856 231.164 50.7994C230.397 51.9135 229.871 53.263 229.587 54.8481H229.587ZM273.437 41.2237L272.436 47.2218H253.643L254.623 41.2237H273.437ZM260.546 33.3405H268.26L263.146 64.231C262.99 65.2736 263.018 66.0732 263.232 66.6302C263.459 67.1729 263.821 67.5441 264.318 67.7442C264.83 67.9442 265.405 68.0443 266.044 68.0443C266.513 68.0443 266.952 68.0085 267.365 67.9371C267.777 67.8514 268.103 67.7871 268.345 67.7442L268.686 73.8067C268.217 73.9493 267.585 74.1067 266.789 74.278C266.008 74.4492 265.07 74.5493 263.976 74.578C262.016 74.6208 260.312 74.3211 258.863 73.6782C257.428 73.0212 256.377 72.0143 255.709 70.6578C255.056 69.2868 254.907 67.5732 255.262 65.5166L260.546 33.3411L260.546 33.3405ZM270.834 74.1277L276.289 41.2237H283.767L282.851 46.7077H283.191C284.087 44.8084 285.351 43.3444 286.984 42.3163C288.632 41.2736 290.393 40.7524 292.269 40.7524C292.709 40.7524 293.185 40.7737 293.696 40.8165C294.207 40.8452 294.648 40.8951 295.018 40.9665L293.824 48.1C293.497 47.9857 292.986 47.8859 292.29 47.8C291.608 47.6999 290.934 47.65 290.266 47.65C288.86 47.65 287.553 47.9571 286.345 48.571C285.152 49.1707 284.143 50.0063 283.319 51.0773C282.496 52.1483 281.963 53.3838 281.722 54.7834L278.547 74.1274L270.834 74.1277ZM304.095 74.7705C300.87 74.7705 298.186 74.0565 296.04 72.6282C293.91 71.2002 292.411 69.1938 291.545 66.6086C290.678 64.0237 290.522 61.0248 291.076 57.6113C291.63 54.241 292.738 51.292 294.4 48.7641C296.076 46.2362 298.185 44.2796 300.729 42.8944C303.285 41.4948 306.147 40.795 309.315 40.795C312.54 40.795 315.217 41.5163 317.348 42.9585C319.479 44.3865 320.978 46.3933 321.844 48.9782C322.724 51.5631 322.888 54.5764 322.334 58.0182C321.794 61.3744 320.679 64.3092 318.988 66.8227C317.312 69.3362 315.203 71.2927 312.66 72.6923C310.118 74.0775 307.263 74.7702 304.095 74.7702V74.7705ZM304.734 68.5581C306.524 68.5581 308.093 68.0726 309.443 67.1014C310.806 66.1161 311.922 64.795 312.787 63.1384C313.669 61.4674 314.279 59.611 314.621 57.5688C314.933 55.5981 314.939 53.8128 314.642 52.2133C314.344 50.5995 313.704 49.3213 312.724 48.3787C311.758 47.422 310.416 46.9436 308.697 46.9436C306.907 46.9436 305.323 47.4435 303.945 48.4431C302.582 49.4284 301.466 50.7566 300.6 52.4276C299.734 54.0844 299.137 55.9335 298.81 57.976C298.484 59.9467 298.469 61.732 298.767 63.3315C299.066 64.9311 299.705 66.202 300.685 67.1445C301.665 68.0871 303.015 68.5583 304.734 68.5583L304.734 68.5581ZM337.596 30.2557L330.351 74.1277H322.638L329.883 30.2557H337.596Z" fill="white"/>
<path d="M53.0142 0.550364L86.9205 14.6705L88.243 15.2209L88.7904 16.5515L93.785 28.6743H90.0442L85.597 17.8811L51.6918 3.76091L17.7854 17.8811L3.74079 51.9698L17.7854 86.0575L51.6918 100.178L85.597 86.0575L87.7031 80.9471H91.4439L88.7904 87.3881L88.243 88.7176L86.9205 89.268L53.0142 103.388L51.6918 103.939L50.3682 103.388L16.463 89.268L15.1395 88.7176L14.5921 87.3881L0.547419 53.2994L0 51.9698L0.547419 50.6392L14.5921 16.5515L15.1395 15.2209L16.463 14.6705L50.3682 0.550364L51.6918 0L53.0142 0.550364ZM39.7315 3.22118C40.5128 3.22118 41.3158 3.53755 41.9999 4.00145C42.6881 4.46809 43.3033 5.11527 43.6986 5.84373L43.7073 5.86036L43.7151 5.87591C44.1595 6.83318 44.3401 7.66773 44.0539 8.80118C43.7851 9.86591 43.1059 11.1835 41.9543 13.1515C40.0039 16.6137 37.1225 22.7523 32.8438 32.6351C27.6474 44.9419 24.1876 55.0323 21.4196 66.5119L21.4174 66.5187C20.8933 68.5743 20.3701 70.8232 19.9648 72.6745C21.0238 70.4932 22.5584 67.419 24.1559 64.2595C26.8165 58.9964 29.6851 53.4327 30.9056 51.2125L30.9077 51.2089C37.7467 38.9725 44.3738 29.6111 50.7947 23.3902C55.5419 18.7345 58.5961 16.9306 61.9894 17.1835H61.9883C63.92 17.3067 65.502 18.3447 66.5225 19.9345L66.72 20.2609L66.7355 20.2887L66.7488 20.3187C67.1416 21.2405 67.2566 22.032 67.2566 23.9165C67.2566 26.841 66.395 29.7406 62.7023 38.7903C59.3516 47.0375 57.6195 51.9139 55.7692 57.1454C55.0783 59.2882 54.2433 62.0654 53.6102 64.3219C53.3818 65.136 53.184 65.8805 53.0253 66.5002C53.2388 66.2476 53.4797 65.9615 53.7439 65.6392C55.0254 64.0759 56.873 61.7247 59.1855 58.7024L59.1888 58.698C66.4827 49.386 69.7414 45.5236 74.8594 40.4951C78.5061 36.7713 81.3772 34.2319 83.735 32.7559C86.0915 31.2807 88.0444 30.8002 89.787 31.4065L89.7892 31.4075C91.0541 31.8526 92.0621 32.6269 92.7164 33.6957C93.3694 34.7624 93.6447 36.0807 93.521 37.5742L93.5199 37.5908L93.5178 37.6075C93.4532 38.0621 93.1502 39.2392 92.7197 40.7392C92.2838 42.2585 91.703 44.1567 91.0641 46.0835C85.8585 62.133 83.9081 69.5318 82.9899 77.1494C82.8179 78.8752 82.6397 80.0103 82.2791 80.8181C81.8896 81.6903 81.3055 82.1463 80.4977 82.5837L80.4945 82.5859C78.2215 83.7955 75.7142 82.8248 74.4281 80.7559C74.1213 80.2623 73.9276 79.8876 73.8552 79.2865C73.7901 78.747 73.824 78.0177 73.8804 76.8207C74.1159 71.5039 76.2198 62.7175 79.6885 51.5566C80.189 49.8794 80.6076 48.363 80.9081 47.2432C80.3127 47.8759 79.5716 48.6802 78.7678 49.5715C76.8079 51.7448 74.4742 54.4077 72.9177 56.262C71.5272 58.0094 68.1751 62.1927 65.6314 65.4472L65.6325 65.4483C58.5944 74.4963 55.9794 77.3888 52.8571 79.2L52.8582 79.2011C50.4792 80.5857 47.5492 80.4818 45.4914 78.6717L45.477 78.6595L45.4637 78.6461C44.2031 77.3787 43.5887 75.9835 43.1126 73.8297L43.1083 73.8087C42.6195 71.1063 43.2371 66.9191 44.9296 60.9856C46.6299 55.0246 49.4446 47.2085 53.4387 37.1986C54.2479 35.1065 54.9996 33.1876 55.5481 31.7798C55.5812 31.6947 55.6127 31.6102 55.6441 31.5289C55.6029 31.5725 55.5606 31.6167 55.5183 31.662C54.4451 32.8129 53.0668 34.398 51.8616 35.8977L51.8627 35.8988C48.9872 39.5992 43.6782 47.4892 40.6802 52.5903C37.6838 57.6884 32.2546 68.2565 28.905 75.5727L28.9017 75.5782C25.2035 83.4213 23.2265 87.5455 21.9412 89.8361C21.2981 90.9824 20.809 91.7035 20.3451 92.2099C19.8679 92.7311 19.4342 93.0063 18.9489 93.2809L18.919 93.2975L18.8892 93.3098C18.1134 93.6346 17.1954 93.7904 16.304 93.7748C15.4219 93.7593 14.5234 93.5744 13.7896 93.1767C13.1012 92.8304 12.4604 92.2012 11.8867 91.4422C11.307 90.6755 10.7664 89.7376 10.2916 88.7234L10.2773 88.6923L10.2661 88.6612C10.0274 87.9415 9.86955 87.4023 9.77704 86.4573C9.68725 85.5382 9.65904 84.231 9.65904 81.966C9.65904 76.3124 10.1359 73.5832 12.4528 64.0328V64.0285C16.1665 49.2106 20.694 36.7293 29.7294 17.0468C30.9498 14.3591 32.3145 11.643 33.5065 9.45082C34.1027 8.35445 34.658 7.38518 35.1314 6.61445C35.5974 5.85518 36.0043 5.25518 36.3025 4.92218L36.3125 4.911L36.3225 4.90091C36.7712 4.44982 37.3406 4.03745 37.9252 3.73582C38.5014 3.43827 39.1429 3.222 39.731 3.222L39.7315 3.22118ZM102.875 74.6425C100.787 74.6425 98.9407 74.2996 97.3356 73.6143C95.7446 72.9145 94.4946 71.8576 93.5853 70.4438C92.6763 69.03 92.2216 67.2305 92.2216 65.0455C92.2216 63.246 92.5271 61.7108 93.138 60.4399C93.7489 59.1545 94.6009 58.1048 95.6947 57.291C96.7885 56.4769 98.0599 55.8556 99.5087 55.4272C100.972 54.9987 102.549 54.7203 104.239 54.5918C106.072 54.4489 107.542 54.2776 108.65 54.0777C109.772 53.8636 110.581 53.5707 111.079 53.1995C111.576 52.8139 111.824 52.3069 111.824 51.6785V51.5929C111.824 50.736 111.497 50.0793 110.844 49.6222C110.191 49.1654 109.353 48.9368 108.33 48.9368C107.208 48.9368 106.292 49.1866 105.581 49.6866C104.885 50.172 104.466 50.922 104.324 51.9357H93.5001C93.6423 49.9364 94.2743 48.0941 95.3966 46.4089C96.5329 44.7095 98.1879 43.3527 100.361 42.3387C102.534 41.3105 105.247 40.7965 108.5 40.7965C110.844 40.7965 112.947 41.0749 114.808 41.6318C116.668 42.1745 118.252 42.9385 119.56 43.9241C120.866 44.8953 121.861 46.0377 122.542 47.3515C123.239 48.651 123.586 50.0648 123.586 51.5929V74.1286H112.592V69.5015H112.336C111.682 70.7296 110.887 71.7221 109.95 72.4792C109.026 73.236 107.968 73.7858 106.775 74.1286C105.596 74.4715 104.296 74.6427 102.876 74.6427L102.875 74.6425ZM106.711 67.1875C107.606 67.1875 108.443 67.002 109.225 66.6305C110.02 66.2591 110.667 65.7237 111.164 65.0239C111.661 64.3241 111.909 63.4743 111.909 62.4747V59.7327C111.597 59.8612 111.263 59.9825 110.908 60.0968C110.567 60.2111 110.198 60.3183 109.8 60.4181C109.416 60.5182 109.004 60.6109 108.564 60.6965C108.138 60.7822 107.691 60.8607 107.222 60.9322C106.313 61.0748 105.567 61.3105 104.985 61.6391C104.416 61.9533 103.99 62.346 103.706 62.8173C103.436 63.2741 103.301 63.7885 103.301 64.3596C103.301 65.2735 103.621 65.9733 104.26 66.4587C104.899 66.9442 105.716 67.1869 106.71 67.1869L106.711 67.1875ZM145.123 41.2241V49.7929H123.56V41.2241H145.123ZM127.737 33.3409H139.497V63.5457C139.497 64.0028 139.577 64.3885 139.733 64.7026C139.889 65.0026 140.131 65.2312 140.457 65.388C140.784 65.5309 141.203 65.6021 141.714 65.6021C142.069 65.6021 142.481 65.5593 142.949 65.4736C143.433 65.388 143.788 65.3166 144.015 65.2596L145.719 73.5712C145.194 73.7283 144.441 73.9211 143.461 74.1496C142.495 74.3782 141.344 74.5282 140.009 74.5996C137.31 74.7423 135.044 74.4638 133.212 73.7643C131.38 73.0503 130.002 71.9291 129.078 70.401C128.155 68.8729 127.707 66.9592 127.737 64.6601V33.3415L127.737 33.3409Z" fill="#0DA7FD"/>
<path d="M53.0142 0.550364L86.9205 14.6705L88.243 15.2209L88.7904 16.5515L93.785 28.6743H90.0442L85.597 17.8811L51.6918 3.76091L17.7854 17.8811L3.74079 51.9698L17.7854 86.0575L51.6918 100.178L85.597 86.0575L87.7031 80.9471H91.4439L88.7904 87.3881L88.243 88.7176L86.9205 89.268L53.0142 103.388L51.6918 103.939L50.3682 103.388L16.463 89.268L15.1395 88.7176L14.5921 87.3881L0.547419 53.2994L0 51.9698L0.547419 50.6392L14.5921 16.5515L15.1395 15.2209L16.463 14.6705L50.3682 0.550364L51.6918 0L53.0142 0.550364ZM39.7315 3.22118C40.5128 3.22118 41.3158 3.53755 41.9999 4.00145C42.6881 4.46809 43.3033 5.11527 43.6986 5.84373L43.7073 5.86036L43.7151 5.87591C44.1595 6.83318 44.3401 7.66773 44.0539 8.80118C43.7851 9.86591 43.1059 11.1835 41.9543 13.1515C40.0039 16.6137 37.1225 22.7523 32.8438 32.6351C27.6474 44.9419 24.1876 55.0323 21.4196 66.5119L21.4174 66.5187C20.8933 68.5743 20.3701 70.8232 19.9648 72.6745C21.0238 70.4932 22.5584 67.419 24.1559 64.2595C26.8165 58.9964 29.6851 53.4327 30.9056 51.2125L30.9077 51.2089C37.7467 38.9725 44.3738 29.6111 50.7947 23.3902C55.5419 18.7345 58.5961 16.9306 61.9894 17.1835H61.9883C63.92 17.3067 65.502 18.3447 66.5225 19.9345L66.72 20.2609L66.7355 20.2887L66.7488 20.3187C67.1416 21.2405 67.2566 22.032 67.2566 23.9165C67.2566 26.841 66.395 29.7406 62.7023 38.7903C59.3516 47.0375 57.6195 51.9139 55.7692 57.1454C55.0783 59.2882 54.2433 62.0654 53.6102 64.3219C53.3818 65.136 53.184 65.8805 53.0253 66.5002C53.2388 66.2476 53.4797 65.9615 53.7439 65.6392C55.0254 64.0759 56.873 61.7247 59.1855 58.7024L59.1888 58.698C66.4827 49.386 69.7414 45.5236 74.8594 40.4951C78.5061 36.7713 81.3772 34.2319 83.735 32.7559C86.0915 31.2807 88.0444 30.8002 89.787 31.4065L89.7892 31.4075C91.0541 31.8526 92.0621 32.6269 92.7164 33.6957C93.3694 34.7624 93.6447 36.0807 93.521 37.5742L93.5199 37.5908L93.5178 37.6075C93.4532 38.0621 93.1502 39.2392 92.7197 40.7392C92.2838 42.2585 91.703 44.1567 91.0641 46.0835C85.8585 62.133 83.9081 69.5318 82.9899 77.1494C82.8179 78.8752 82.6397 80.0103 82.2791 80.8181C81.8896 81.6903 81.3055 82.1463 80.4977 82.5837L80.4945 82.5859C78.2215 83.7955 75.7142 82.8248 74.4281 80.7559C74.1213 80.2623 73.9276 79.8876 73.8552 79.2865C73.7901 78.747 73.824 78.0177 73.8804 76.8207C74.1159 71.5039 76.2198 62.7175 79.6885 51.5566C80.189 49.8794 80.6076 48.363 80.9081 47.2432C80.3127 47.8759 79.5716 48.6802 78.7678 49.5715C76.8079 51.7448 74.4742 54.4077 72.9177 56.262C71.5272 58.0094 68.1751 62.1927 65.6314 65.4472L65.6325 65.4483C58.5944 74.4963 55.9794 77.3888 52.8571 79.2L52.8582 79.2011C50.4792 80.5857 47.5492 80.4818 45.4914 78.6717L45.477 78.6595L45.4637 78.6461C44.2031 77.3787 43.5887 75.9835 43.1126 73.8297L43.1083 73.8087C42.6195 71.1063 43.2371 66.9191 44.9296 60.9856C46.6299 55.0246 49.4446 47.2085 53.4387 37.1986C54.2479 35.1065 54.9996 33.1876 55.5481 31.7798C55.5812 31.6947 55.6127 31.6102 55.6441 31.5289C55.6029 31.5725 55.5606 31.6167 55.5183 31.662C54.4451 32.8129 53.0668 34.398 51.8616 35.8977L51.8627 35.8988C48.9872 39.5992 43.6782 47.4892 40.6802 52.5903C37.6838 57.6884 32.2546 68.2565 28.905 75.5727L28.9017 75.5782C25.2035 83.4213 23.2265 87.5455 21.9412 89.8361C21.2981 90.9824 20.809 91.7035 20.3451 92.2099C19.8679 92.7311 19.4342 93.0063 18.9489 93.2809L18.919 93.2975L18.8892 93.3098C18.1134 93.6346 17.1954 93.7904 16.304 93.7748C15.4219 93.7593 14.5234 93.5744 13.7896 93.1767C13.1012 92.8304 12.4604 92.2012 11.8867 91.4422C11.307 90.6755 10.7664 89.7376 10.2916 88.7234L10.2773 88.6923L10.2661 88.6612C10.0274 87.9415 9.86955 87.4023 9.77704 86.4573C9.68725 85.5382 9.65904 84.231 9.65904 81.966C9.65904 76.3124 10.1359 73.5832 12.4528 64.0328V64.0285C16.1665 49.2106 20.694 36.7293 29.7294 17.0468C30.9498 14.3591 32.3145 11.643 33.5065 9.45082C34.1027 8.35445 34.658 7.38518 35.1314 6.61445C35.5974 5.85518 36.0043 5.25518 36.3025 4.92218L36.3125 4.911L36.3225 4.90091C36.7712 4.44982 37.3406 4.03745 37.9252 3.73582C38.5014 3.43827 39.1429 3.222 39.731 3.222L39.7315 3.22118ZM102.875 74.6425C100.787 74.6425 98.9407 74.2996 97.3356 73.6143C95.7446 72.9145 94.4946 71.8576 93.5853 70.4438C92.6763 69.03 92.2216 67.2305 92.2216 65.0455C92.2216 63.246 92.5271 61.7108 93.138 60.4399C93.7489 59.1545 94.6009 58.1048 95.6947 57.291C96.7885 56.4769 98.0599 55.8556 99.5087 55.4272C100.972 54.9987 102.549 54.7203 104.239 54.5918C106.072 54.4489 107.542 54.2776 108.65 54.0777C109.772 53.8636 110.581 53.5707 111.079 53.1995C111.576 52.8139 111.824 52.3069 111.824 51.6785V51.5929C111.824 50.736 111.497 50.0793 110.844 49.6222C110.191 49.1654 109.353 48.9368 108.33 48.9368C107.208 48.9368 106.292 49.1866 105.581 49.6866C104.885 50.172 104.466 50.922 104.324 51.9357H93.5001C93.6423 49.9364 94.2743 48.0941 95.3966 46.4089C96.5329 44.7095 98.1879 43.3527 100.361 42.3387C102.534 41.3105 105.247 40.7965 108.5 40.7965C110.844 40.7965 112.947 41.0749 114.808 41.6318C116.668 42.1745 118.252 42.9385 119.56 43.9241C120.866 44.8953 121.861 46.0377 122.542 47.3515C123.239 48.651 123.586 50.0648 123.586 51.5929V74.1286H112.592V69.5015H112.336C111.682 70.7296 110.887 71.7221 109.95 72.4792C109.026 73.236 107.968 73.7858 106.775 74.1286C105.596 74.4715 104.296 74.6427 102.876 74.6427L102.875 74.6425ZM106.711 67.1875C107.606 67.1875 108.443 67.002 109.225 66.6305C110.02 66.2591 110.667 65.7237 111.164 65.0239C111.661 64.3241 111.909 63.4743 111.909 62.4747V59.7327C111.597 59.8612 111.263 59.9825 110.908 60.0968C110.567 60.2111 110.198 60.3183 109.8 60.4181C109.416 60.5182 109.004 60.6109 108.564 60.6965C108.138 60.7822 107.691 60.8607 107.222 60.9322C106.313 61.0748 105.567 61.3105 104.985 61.6391C104.416 61.9533 103.99 62.346 103.706 62.8173C103.436 63.2741 103.301 63.7885 103.301 64.3596C103.301 65.2735 103.621 65.9733 104.26 66.4587C104.899 66.9442 105.716 67.1869 106.71 67.1869L106.711 67.1875ZM145.123 41.2241V49.7929H123.56V41.2241H145.123ZM127.737 33.3409H139.497V63.5457C139.497 64.0028 139.577 64.3885 139.733 64.7026C139.889 65.0026 140.131 65.2312 140.457 65.388C140.784 65.5309 141.203 65.6021 141.714 65.6021C142.069 65.6021 142.481 65.5593 142.949 65.4736C143.433 65.388 143.788 65.3166 144.015 65.2596L145.719 73.5712C145.194 73.7283 144.441 73.9211 143.461 74.1496C142.495 74.3782 141.344 74.5282 140.009 74.5996C137.31 74.7423 135.044 74.4638 133.212 73.7643C131.38 73.0503 130.002 71.9291 129.078 70.401C128.155 68.8729 127.707 66.9592 127.737 64.6601V33.3415L127.737 33.3409Z" fill="#282828"/>
<path d="M105.603 91.3758C105.509 90.5819 105.13 89.9658 104.465 89.527C103.8 89.0882 102.984 88.8689 102.018 88.8689C101.312 88.8689 100.694 88.9837 100.164 89.2136C99.6389 89.4436 99.2285 89.7594 98.9325 90.1616C98.6417 90.5639 98.496 91.0207 98.496 91.5326C98.496 91.9608 98.5972 92.329 98.7999 92.6372C99.0077 92.9402 99.2727 93.1936 99.5947 93.3973C99.9167 93.5958 100.254 93.7603 100.608 93.8909C100.961 94.0164 101.285 94.1181 101.582 94.1964L103.203 94.6349C103.618 94.7448 104.081 94.8959 104.59 95.0893C105.104 95.2824 105.595 95.5461 106.062 95.8805C106.535 96.2094 106.925 96.6326 107.231 97.1495C107.538 97.6666 107.691 98.3012 107.691 99.0531C107.691 99.9201 107.465 100.703 107.013 101.403C106.566 102.103 105.912 102.66 105.049 103.072C104.192 103.485 103.151 103.691 101.925 103.691C100.782 103.691 99.7922 103.506 98.9556 103.135C98.1244 102.764 97.4698 102.247 96.9919 101.583C96.519 100.92 96.2516 100.15 96.1895 99.2724H98.1841C98.2362 99.8784 98.4385 100.38 98.792 100.776C99.1503 101.168 99.6023 101.461 100.148 101.654C100.698 101.842 101.291 101.936 101.925 101.936C102.662 101.936 103.325 101.816 103.912 101.576C104.499 101.33 104.964 100.991 105.307 100.557C105.649 100.118 105.821 99.6067 105.821 99.0217C105.821 98.4891 105.673 98.0555 105.377 97.7214C105.081 97.3873 104.691 97.1156 104.208 96.9065C103.725 96.6976 103.203 96.5148 102.642 96.358L100.678 95.794C99.4311 95.4335 98.444 94.9191 97.717 94.2506C96.9897 93.5822 96.6259 92.7073 96.6259 91.6262C96.6259 90.7278 96.8674 89.9446 97.3508 89.2761C97.839 88.6025 98.4936 88.0802 99.3145 87.7093C100.14 87.3332 101.063 87.1453 102.081 87.1453C103.109 87.1453 104.023 87.3307 104.823 87.7016C105.623 88.0671 106.257 88.5687 106.725 89.2057C107.198 89.8431 107.447 90.5664 107.473 91.3758H105.603ZM116.845 98.4891V91.3758H118.684V103.409H116.845V101.372H116.72C116.44 101.983 116.003 102.503 115.411 102.931C114.819 103.354 114.072 103.566 113.168 103.566C112.419 103.566 111.754 103.401 111.172 103.072C110.591 102.738 110.133 102.237 109.801 101.568C109.469 100.895 109.302 100.046 109.302 99.022V91.3758H111.141V98.8966C111.141 99.7739 111.385 100.474 111.874 100.996C112.367 101.518 112.996 101.78 113.759 101.78C114.216 101.78 114.682 101.662 115.154 101.427C115.632 101.192 116.033 100.832 116.354 100.346C116.681 99.8601 116.845 99.2413 116.845 98.4891H116.845ZM124.258 103.691C123.499 103.691 122.811 103.547 122.193 103.26C121.574 102.968 121.084 102.547 120.72 101.999C120.356 101.445 120.175 100.777 120.175 99.9932C120.175 99.3037 120.31 98.7449 120.58 98.3167C120.85 97.8831 121.211 97.5436 121.663 97.2981C122.115 97.0526 122.613 96.8699 123.159 96.7496C123.71 96.6242 124.264 96.5252 124.819 96.4521C125.547 96.358 126.137 96.2876 126.588 96.2405C127.046 96.1884 127.378 96.1022 127.586 95.9819C127.798 95.8619 127.904 95.653 127.904 95.3552V95.2925C127.904 94.5196 127.694 93.919 127.274 93.4906C126.858 93.0624 126.227 92.8483 125.381 92.8483C124.502 92.8483 123.814 93.0414 123.315 93.4278C122.817 93.8146 122.466 94.2269 122.263 94.6657L120.518 94.039C120.83 93.3078 121.245 92.7386 121.765 92.3312C122.289 91.9186 122.861 91.6314 123.48 91.4694C124.102 91.3025 124.716 91.2187 125.318 91.2187C125.703 91.2187 126.144 91.2659 126.643 91.3597C127.146 91.4484 127.632 91.6338 128.1 91.9161C128.573 92.1981 128.965 92.6238 129.277 93.193C129.589 93.7625 129.744 94.5247 129.744 95.4806V103.409H127.905V101.779H127.812C127.686 102.04 127.48 102.32 127.188 102.618C126.898 102.915 126.51 103.169 126.027 103.377C125.545 103.586 124.955 103.691 124.258 103.691L124.258 103.691ZM124.538 102.03C125.266 102.03 125.879 101.887 126.377 101.599C126.881 101.312 127.261 100.941 127.515 100.487C127.775 100.032 127.904 99.5546 127.904 99.0531V97.3608C127.827 97.4549 127.655 97.5408 127.39 97.6194C127.131 97.6925 126.829 97.7576 126.487 97.8152C126.149 97.8676 125.818 97.9145 125.496 97.9562C125.18 97.9927 124.922 98.0241 124.726 98.0503C124.248 98.113 123.801 98.2147 123.385 98.3557C122.975 98.4916 122.642 98.698 122.387 98.9748C122.138 99.2462 122.014 99.6171 122.014 100.087C122.014 100.73 122.25 101.216 122.723 101.544C123.201 101.868 123.806 102.03 124.538 102.03ZM140.161 103.691C139.402 103.691 138.714 103.547 138.096 103.26C137.478 102.968 136.987 102.547 136.623 101.999C136.259 101.445 136.077 100.777 136.077 99.9932C136.077 99.3037 136.213 98.7449 136.483 98.3167C136.753 97.8831 137.114 97.5436 137.566 97.2981C138.018 97.0526 138.517 96.8699 139.063 96.7496C139.613 96.6242 140.166 96.5252 140.722 96.4521C141.45 96.358 142.039 96.2876 142.491 96.2405C142.947 96.1884 143.281 96.1022 143.488 95.9819C143.702 95.8619 143.808 95.653 143.808 95.3552V95.2925C143.808 94.5196 143.597 93.919 143.177 93.4906C142.761 93.0624 142.13 92.8483 141.283 92.8483C140.406 92.8483 139.717 93.0414 139.219 93.4278C138.719 93.8146 138.369 94.2269 138.167 94.6657L136.421 94.039C136.732 93.3078 137.148 92.7386 137.668 92.3312C138.193 91.9186 138.764 91.6314 139.382 91.4694C140.006 91.3025 140.618 91.2187 141.221 91.2187C141.605 91.2187 142.047 91.2659 142.545 91.3597C143.049 91.4484 143.535 91.6338 144.002 91.9161C144.476 92.1981 144.868 92.6238 145.179 93.193C145.491 93.7625 145.647 94.5247 145.647 95.4806V103.409H143.808V101.779H143.714C143.59 102.04 143.382 102.32 143.091 102.618C142.8 102.915 142.413 103.169 141.93 103.377C141.447 103.586 140.858 103.691 140.161 103.691L140.161 103.691ZM140.441 102.03C141.168 102.03 141.782 101.887 142.28 101.599C142.784 101.312 143.163 100.941 143.417 100.487C143.677 100.032 143.807 99.5546 143.807 99.0531V97.3608C143.729 97.4549 143.559 97.5408 143.293 97.6194C143.033 97.6925 142.732 97.7576 142.389 97.8152C142.052 97.8676 141.722 97.9145 141.4 97.9562C141.083 97.9927 140.826 98.0241 140.628 98.0503C140.151 98.113 139.703 98.2147 139.288 98.3557C138.877 98.4916 138.544 98.698 138.29 98.9748C138.042 99.2462 137.916 99.6171 137.916 100.087C137.916 100.73 138.152 101.216 138.626 101.544C139.103 101.868 139.709 102.03 140.441 102.03ZM152.549 103.66C151.426 103.66 150.46 103.393 149.649 102.861C148.839 102.328 148.216 101.594 147.78 100.659C147.344 99.7243 147.125 98.6563 147.125 97.4549C147.125 96.2328 147.348 95.1542 147.794 94.2193C148.247 93.2792 148.875 92.5456 149.681 92.0178C150.491 91.4852 151.436 91.2187 152.517 91.2187C153.359 91.2187 154.117 91.3756 154.792 91.6889C155.468 92.0023 156.021 92.4408 156.452 93.0051C156.883 93.5691 157.151 94.2272 157.255 94.9794H155.416C155.276 94.4309 154.964 93.9452 154.481 93.5222C154.003 93.094 153.359 92.8799 152.548 92.8799C151.832 92.8799 151.202 93.0678 150.662 93.4439C150.127 93.8148 149.709 94.3398 149.408 95.0186C149.112 95.6923 148.964 96.4837 148.964 97.3925C148.964 98.3222 149.109 99.1316 149.401 99.8211C149.697 100.511 150.112 101.046 150.647 101.427C151.188 101.808 151.821 101.999 152.548 101.999C153.026 101.999 153.459 101.915 153.849 101.748C154.239 101.581 154.569 101.341 154.84 101.028C155.11 100.714 155.302 100.338 155.416 99.8997H157.255C157.151 100.61 156.893 101.25 156.483 101.819C156.078 102.383 155.54 102.832 154.87 103.166C154.205 103.495 153.431 103.66 152.548 103.66L152.549 103.66ZM162.149 103.691C161.391 103.691 160.703 103.547 160.084 103.26C159.466 102.968 158.974 102.547 158.611 101.999C158.247 101.445 158.066 100.777 158.066 99.9932C158.066 99.3037 158.201 98.7449 158.472 98.3167C158.742 97.8831 159.102 97.5436 159.554 97.2981C160.007 97.0526 160.505 96.8699 161.051 96.7496C161.601 96.6242 162.154 96.5252 162.71 96.4521C163.437 96.358 164.027 96.2876 164.479 96.2405C164.936 96.1884 165.269 96.1022 165.476 95.9819C165.69 95.8619 165.796 95.653 165.796 95.3552V95.2925C165.796 94.5196 165.586 93.919 165.165 93.4906C164.749 93.0624 164.119 92.8483 163.271 92.8483C162.394 92.8483 161.706 93.0414 161.206 93.4278C160.708 93.8146 160.357 94.2269 160.155 94.6657L158.409 94.039C158.721 93.3078 159.136 92.7386 159.656 92.3312C160.181 91.9186 160.752 91.6314 161.37 91.4694C161.994 91.3025 162.606 91.2187 163.209 91.2187C163.593 91.2187 164.035 91.2659 164.534 91.3597C165.038 91.4484 165.524 91.6338 165.991 91.9161C166.464 92.1981 166.856 92.6238 167.167 93.193C167.479 93.7625 167.635 94.5247 167.635 95.4806V103.409H165.796V101.779H165.702C165.578 102.04 165.37 102.32 165.079 102.618C164.788 102.915 164.401 103.169 163.919 103.377C163.435 103.586 162.845 103.691 162.15 103.691L162.149 103.691ZM162.43 102.03C163.156 102.03 163.77 101.887 164.269 101.599C164.773 101.312 165.151 100.941 165.406 100.487C165.666 100.032 165.796 99.5546 165.796 99.0531V97.3608C165.718 97.4549 165.546 97.5408 165.281 97.6194C165.022 97.6925 164.721 97.7576 164.377 97.8152C164.04 97.8676 163.711 97.9145 163.388 97.9562C163.071 97.9927 162.814 98.0241 162.616 98.0503C162.138 98.113 161.692 98.2147 161.276 98.3557C160.865 98.4916 160.533 98.698 160.279 98.9748C160.029 99.2462 159.905 99.6171 159.905 100.087C159.905 100.73 160.141 101.216 160.613 101.544C161.091 101.868 161.697 102.03 162.43 102.03H162.43ZM174.194 103.66C173.197 103.66 172.316 103.406 171.552 102.9C170.789 102.388 170.191 101.667 169.761 100.738C169.329 99.8028 169.113 98.6983 169.113 97.4238C169.113 96.16 169.329 95.0631 169.761 94.1334C170.191 93.2036 170.791 92.4856 171.56 91.9788C172.328 91.4721 173.217 91.219 174.225 91.219C175.004 91.219 175.62 91.3496 176.072 91.6106C176.528 91.8665 176.877 92.1591 177.116 92.488C177.36 92.8117 177.549 93.0782 177.685 93.2871H177.841V87.3643H179.68V103.409H177.903V101.56H177.685C177.549 101.779 177.357 102.056 177.108 102.39C176.859 102.719 176.503 103.014 176.04 103.276C175.578 103.532 174.963 103.659 174.193 103.659L174.194 103.66ZM174.444 101.999C175.182 101.999 175.804 101.805 176.314 101.419C176.823 101.027 177.209 100.487 177.475 99.7974C177.739 99.1027 177.872 98.3012 177.872 97.3922C177.872 96.4938 177.743 95.7078 177.483 95.0342C177.223 94.3551 176.839 93.8276 176.329 93.4516C175.82 93.0703 175.192 92.8796 174.444 92.8796C173.665 92.8796 173.015 93.0806 172.495 93.4829C171.981 93.8797 171.594 94.4206 171.334 95.1046C171.08 95.7837 170.952 96.5459 170.952 97.3919C170.952 98.2486 171.082 99.0266 171.342 99.7265C171.608 100.421 171.997 100.975 172.511 101.387C173.031 101.795 173.675 101.999 174.444 101.999L174.444 101.999ZM187.005 103.66C185.851 103.66 184.857 103.404 184.02 102.892C183.189 102.375 182.548 101.654 182.095 100.73C181.649 99.8001 181.425 98.719 181.425 97.4866C181.425 96.2538 181.649 95.1676 182.095 94.2275C182.548 93.2822 183.176 92.5458 183.982 92.0184C184.792 91.4857 185.737 91.2193 186.818 91.2193C187.442 91.2193 188.057 91.3237 188.664 91.5326C189.273 91.7416 189.825 92.0811 190.324 92.551C190.823 93.016 191.22 93.6321 191.516 94.3998C191.813 95.1676 191.96 96.1128 191.96 97.2359V98.0195H182.735V96.4213H190.091C190.091 95.7422 189.955 95.1365 189.685 94.6038C189.421 94.0712 189.041 93.6507 188.548 93.3425C188.06 93.0343 187.482 92.8802 186.818 92.8802C186.085 92.8802 185.451 93.0629 184.917 93.4284C184.387 93.7889 183.979 94.2588 183.694 94.8386C183.408 95.4182 183.264 96.04 183.264 96.7033V97.7688C183.264 98.6776 183.42 99.448 183.732 100.08C184.049 100.707 184.488 101.184 185.049 101.514C185.611 101.838 186.262 101.999 187.005 101.999C187.488 101.999 187.924 101.931 188.314 101.796C188.709 101.655 189.049 101.446 189.335 101.169C189.621 100.887 189.841 100.537 189.997 100.119L191.774 100.62C191.586 101.226 191.272 101.759 190.831 102.219C190.389 102.673 189.843 103.028 189.195 103.284C188.545 103.535 187.816 103.66 187.005 103.66V103.66ZM193.441 103.409V91.3758H195.218V93.256H195.374C195.624 92.6137 196.026 92.1146 196.582 91.7596C197.137 91.3993 197.805 91.219 198.584 91.219C199.374 91.219 200.031 91.3993 200.556 91.7596C201.085 92.1146 201.499 92.6135 201.795 93.256H201.919C202.226 92.6345 202.686 92.1408 203.298 91.7754C203.912 91.4045 204.647 91.219 205.503 91.219C206.574 91.219 207.45 91.5558 208.13 92.2297C208.81 92.8982 209.151 93.9403 209.151 95.3555V103.409H207.312V95.3555C207.312 94.4677 207.07 93.8331 206.587 93.4518C206.104 93.0706 205.535 92.8799 204.881 92.8799C204.039 92.8799 203.386 93.1357 202.924 93.6476C202.462 94.1544 202.231 94.7966 202.231 95.5747V103.409H200.361V95.1673C200.361 94.483 200.14 93.9321 199.698 93.5143C199.257 93.0913 198.688 92.8796 197.991 92.8796C197.515 92.8796 197.067 93.0076 196.652 93.2636C196.242 93.5195 195.908 93.8746 195.654 94.3292C195.405 94.7784 195.28 95.2979 195.28 95.8881V103.409H193.441L193.441 103.409ZM211.197 103.409V91.3758H213.036V103.409H211.197ZM212.132 89.3702C211.773 89.3702 211.464 89.2475 211.205 89.002C210.949 88.7566 210.823 88.4615 210.823 88.1167C210.823 87.772 210.949 87.4769 211.205 87.2315C211.463 86.986 211.773 86.8633 212.132 86.8633C212.49 86.8633 212.796 86.986 213.052 87.2315C213.311 87.4769 213.44 87.772 213.44 88.1167C213.44 88.4615 213.311 88.7566 213.052 89.002C212.796 89.2475 212.49 89.3702 212.132 89.3702ZM218.609 103.691C217.851 103.691 217.163 103.547 216.544 103.26C215.926 102.968 215.435 102.547 215.071 101.999C214.707 101.445 214.527 100.777 214.527 99.9932C214.527 99.3037 214.661 98.7449 214.931 98.3167C215.202 97.8831 215.562 97.5436 216.014 97.2981C216.466 97.0526 216.965 96.8699 217.511 96.7496C218.061 96.6242 218.615 96.5252 219.17 96.4521C219.898 96.358 220.487 96.2876 220.939 96.2405C221.397 96.1884 221.729 96.1022 221.937 95.9819C222.15 95.8619 222.256 95.653 222.256 95.3552V95.2925C222.256 94.5196 222.046 93.919 221.625 93.4906C221.209 93.0624 220.579 92.8483 219.732 92.8483C218.854 92.8483 218.165 93.0414 217.667 93.4278C217.169 93.8146 216.817 94.2269 216.615 94.6657L214.87 94.039C215.182 93.3078 215.597 92.7386 216.117 92.3312C216.641 91.9186 217.213 91.6314 217.831 91.4694C218.454 91.3025 219.067 91.2187 219.67 91.2187C220.055 91.2187 220.495 91.2659 220.995 91.3597C221.498 91.4484 221.984 91.6338 222.452 91.9161C222.924 92.1981 223.316 92.6238 223.628 93.193C223.94 93.7625 224.095 94.5247 224.095 95.4806V103.409H222.256V101.779H222.163C222.038 102.04 221.831 102.32 221.539 102.618C221.249 102.915 220.861 103.169 220.379 103.377C219.896 103.586 219.306 103.691 218.61 103.691L218.609 103.691ZM218.889 102.03C219.617 102.03 220.23 101.887 220.728 101.599C221.232 101.312 221.612 100.941 221.867 100.487C222.126 100.032 222.255 99.5546 222.255 99.0531V97.3608C222.177 97.4549 222.007 97.5408 221.741 97.6194C221.482 97.6925 221.18 97.7576 220.838 97.8152C220.5 97.8676 220.17 97.9145 219.848 97.9562C219.531 97.9927 219.274 98.0241 219.077 98.0503C218.599 98.113 218.152 98.2147 217.736 98.3557C217.326 98.4916 216.994 98.698 216.738 98.9748C216.49 99.2462 216.365 99.6171 216.365 100.087C216.365 100.73 216.602 101.216 217.074 101.544C217.552 101.868 218.157 102.03 218.889 102.03ZM232.829 96.1704V103.409H230.99V91.3758H232.766V93.256H232.922C233.202 92.6448 233.628 92.1539 234.2 91.7833C234.771 91.4072 235.509 91.2193 236.413 91.2193C237.224 91.2193 237.932 91.3865 238.54 91.7206C239.149 92.0497 239.621 92.551 239.959 93.2246C240.296 93.8931 240.465 94.7394 240.465 95.7629V103.409H238.626V95.8884C238.626 94.9431 238.382 94.2067 237.894 93.6793C237.406 93.1466 236.735 92.8802 235.883 92.8802C235.296 92.8802 234.771 93.0081 234.309 93.2642C233.852 93.52 233.492 93.8936 233.226 94.3846C232.961 94.8755 232.829 95.4708 232.829 96.1709V96.1704ZM247.371 103.66C246.291 103.66 245.342 103.401 244.528 102.884C243.717 102.367 243.083 101.644 242.625 100.714C242.174 99.7843 241.948 98.698 241.948 97.4549C241.948 96.2015 242.174 95.1073 242.625 94.1724C243.083 93.2375 243.717 92.5115 244.528 91.9944C245.342 91.4773 246.291 91.2187 247.371 91.2187C248.452 91.2187 249.397 91.4773 250.207 91.9944C251.023 92.5115 251.657 93.2375 252.108 94.1724C252.566 95.1073 252.794 96.2015 252.794 97.4549C252.794 98.698 252.566 99.7843 252.108 100.714C251.657 101.644 251.023 102.367 250.207 102.884C249.397 103.401 248.452 103.66 247.371 103.66ZM247.371 101.999C248.192 101.999 248.868 101.787 249.397 101.364C249.927 100.941 250.319 100.385 250.574 99.6956C250.829 99.0062 250.955 98.2595 250.955 97.4552C250.955 96.6509 250.829 95.9015 250.574 95.2068C250.319 94.5122 249.927 93.9509 249.397 93.5225C248.868 93.0943 248.192 92.8802 247.371 92.8802C246.551 92.8802 245.875 93.0943 245.345 93.5225C244.816 93.9506 244.423 94.5122 244.168 95.2068C243.914 95.9015 243.787 96.6509 243.787 97.4552C243.787 98.2595 243.914 99.0065 244.168 99.6956C244.424 100.385 244.816 100.941 245.345 101.364C245.875 101.787 246.551 101.999 247.371 101.999ZM264.002 103.66C262.88 103.66 261.914 103.393 261.104 102.861C260.294 102.328 259.67 101.594 259.233 100.659C258.797 99.7243 258.579 98.6563 258.579 97.4549C258.579 96.2328 258.802 95.1542 259.249 94.2193C259.701 93.2792 260.33 92.5456 261.135 92.0178C261.945 91.4852 262.891 91.2187 263.971 91.2187C264.812 91.2187 265.571 91.3756 266.247 91.6889C266.922 92.0023 267.475 92.4408 267.906 93.0051C268.338 93.5691 268.605 94.2272 268.709 94.9794H266.87C266.729 94.4309 266.418 93.9452 265.935 93.5222C265.457 93.094 264.813 92.8799 264.002 92.8799C263.285 92.8799 262.657 93.0678 262.117 93.4439C261.581 93.8148 261.163 94.3398 260.862 95.0186C260.566 95.6923 260.418 96.4837 260.418 97.3925C260.418 98.3222 260.564 99.1316 260.854 99.8211C261.15 100.511 261.566 101.046 262.101 101.427C262.641 101.808 263.275 101.999 264.002 101.999C264.48 101.999 264.914 101.915 265.303 101.748C265.693 101.581 266.023 101.341 266.293 101.028C266.563 100.714 266.755 100.338 266.869 99.8997H268.708C268.604 100.61 268.348 101.25 267.937 101.819C267.532 102.383 266.994 102.832 266.324 103.166C265.659 103.495 264.885 103.66 264.002 103.66L264.002 103.66ZM274.943 103.66C273.863 103.66 272.914 103.401 272.098 102.884C271.288 102.367 270.655 101.644 270.197 100.714C269.745 99.7843 269.519 98.698 269.519 97.4549C269.519 96.2015 269.745 95.1073 270.197 94.1724C270.655 93.2375 271.288 92.5115 272.098 91.9944C272.914 91.4773 273.863 91.2187 274.943 91.2187C276.024 91.2187 276.969 91.4773 277.779 91.9944C278.595 92.5115 279.228 93.2375 279.68 94.1724C280.138 95.1073 280.366 96.2015 280.366 97.4549C280.366 98.698 280.138 99.7843 279.68 100.714C279.228 101.644 278.595 102.367 277.779 102.884C276.968 103.401 276.024 103.66 274.943 103.66ZM274.943 101.999C275.764 101.999 276.439 101.787 276.969 101.364C277.499 100.941 277.891 100.385 278.145 99.6956C278.4 99.0062 278.527 98.2595 278.527 97.4552C278.527 96.6509 278.399 95.9015 278.145 95.2068C277.891 94.5122 277.499 93.9509 276.969 93.5225C276.439 93.0943 275.764 92.8802 274.943 92.8802C274.122 92.8802 273.447 93.0943 272.917 93.5225C272.386 93.9506 271.994 94.5122 271.74 95.2068C271.486 95.9015 271.358 96.6509 271.358 97.4552C271.358 98.2595 271.486 99.0065 271.74 99.6956C271.994 100.385 272.386 100.941 272.917 101.364C273.447 101.787 274.122 101.999 274.943 101.999ZM283.696 96.1701V103.409H281.857V91.3756H283.634V93.2557H283.789C284.07 92.6446 284.495 92.1536 285.067 91.783C285.639 91.4069 286.376 91.219 287.28 91.219C288.09 91.219 288.799 91.3862 289.407 91.7203C290.016 92.0495 290.488 92.5507 290.826 93.2244C291.164 93.8928 291.332 94.7391 291.332 95.7626V103.409H289.493V95.8881C289.493 94.9428 289.249 94.2065 288.761 93.679C288.273 93.1464 287.602 92.8799 286.75 92.8799C286.164 92.8799 285.639 93.0078 285.177 93.2639C284.719 93.5197 284.359 93.8934 284.093 94.3843C283.829 94.8752 283.696 95.4706 283.696 96.1706V96.1701ZM298.581 91.3756V92.9424H292.379V91.3756H298.581ZM294.186 88.4926H296.025V99.9618C296.025 100.484 296.101 100.876 296.251 101.137C296.407 101.393 296.605 101.565 296.843 101.654C297.088 101.738 297.345 101.78 297.615 101.78C297.818 101.78 297.984 101.769 298.114 101.748C298.244 101.722 298.348 101.701 298.426 101.685L298.799 103.346C298.675 103.393 298.5 103.44 298.278 103.487C298.054 103.54 297.77 103.566 297.428 103.566C296.908 103.566 296.399 103.454 295.901 103.229C295.407 103.005 294.997 102.663 294.67 102.203C294.348 101.743 294.186 101.163 294.186 100.464V88.4931L294.186 88.4926ZM300.031 103.409V91.3756H301.808V93.193H301.932C302.15 92.5976 302.545 92.1144 303.117 91.7437C303.689 91.3728 304.333 91.1874 305.05 91.1874C305.184 91.1874 305.354 91.1901 305.556 91.1953C305.758 91.2005 305.912 91.2084 306.016 91.2187V93.0989C305.953 93.0831 305.811 93.0596 305.587 93.0283C305.369 92.9917 305.138 92.9735 304.894 92.9735C304.312 92.9735 303.793 93.0962 303.335 93.3416C302.883 93.5819 302.525 93.9163 302.26 94.3445C302 94.7675 301.87 95.2505 301.87 95.7937V103.409H300.031L300.031 103.409ZM311.377 103.659C310.296 103.659 309.348 103.401 308.533 102.884C307.723 102.367 307.089 101.643 306.632 100.714C306.18 99.784 305.954 98.6977 305.954 97.4547C305.954 96.2012 306.18 95.107 306.632 94.1721C307.089 93.2372 307.723 92.5112 308.533 91.9941C309.348 91.477 310.296 91.2185 311.377 91.2185C312.457 91.2185 313.402 91.477 314.213 91.9941C315.029 92.5112 315.663 93.2372 316.115 94.1721C316.572 95.107 316.8 96.2012 316.8 97.4547C316.8 98.6977 316.572 99.784 316.115 100.714C315.663 101.643 315.029 102.367 314.213 102.884C313.402 103.401 312.457 103.659 311.377 103.659ZM311.377 101.999C312.198 101.999 312.874 101.787 313.402 101.364C313.933 100.941 314.325 100.385 314.579 99.6954C314.835 99.0059 314.961 98.2592 314.961 97.4549C314.961 96.6506 314.835 95.9012 314.579 95.2066C314.325 94.5119 313.933 93.9506 313.402 93.5222C312.874 93.094 312.198 92.8799 311.377 92.8799C310.556 92.8799 309.88 93.094 309.351 93.5222C308.821 93.9504 308.429 94.5119 308.175 95.2066C307.919 95.9012 307.793 96.6506 307.793 97.4549C307.793 98.2592 307.919 99.0062 308.175 99.6954C308.429 100.385 308.821 100.941 309.351 101.364C309.88 101.787 310.556 101.999 311.377 101.999ZM320.13 87.3643V103.409H318.291V87.3643H320.13ZM327.2 103.659C326.047 103.659 325.052 103.404 324.216 102.892C323.384 102.375 322.743 101.654 322.291 100.73C321.843 99.7998 321.621 98.7187 321.621 97.4863C321.621 96.2536 321.843 95.1673 322.291 94.2272C322.743 93.2819 323.371 92.5456 324.176 92.0181C324.987 91.4855 325.933 91.219 327.013 91.219C327.636 91.219 328.252 91.3235 328.859 91.5324C329.467 91.7413 330.021 92.0808 330.519 92.5507C331.018 93.0157 331.416 93.6318 331.712 94.3996C332.008 95.1673 332.156 96.1126 332.156 97.2356V98.0192H322.93V96.421H330.286C330.286 95.7419 330.151 95.1362 329.881 94.6036C329.615 94.0709 329.237 93.6504 328.743 93.3422C328.254 93.034 327.678 92.8799 327.013 92.8799C326.28 92.8799 325.647 93.0626 325.111 93.4281C324.582 93.7886 324.174 94.2586 323.888 94.8384C323.602 95.4179 323.46 96.0397 323.46 96.703V97.7686C323.46 98.6773 323.616 99.4477 323.927 100.08C324.244 100.706 324.683 101.184 325.244 101.513C325.805 101.837 326.457 101.999 327.2 101.999C327.682 101.999 328.119 101.931 328.509 101.795C328.903 101.654 329.244 101.445 329.529 101.169C329.815 100.887 330.036 100.537 330.192 100.119L331.969 100.62C331.782 101.226 331.468 101.759 331.026 102.218C330.584 102.673 330.039 103.028 329.389 103.284C328.741 103.535 328.011 103.66 327.2 103.66L327.2 103.659Z" fill="white"/>
</svg>
