<svg width="18" height="18" viewBox="0 0 18 18" fill="none" xmlns="http://www.w3.org/2000/svg">
<path d="M12.4639 0C12.5058 0 12.5477 0 12.592 0C12.6947 1.2694 12.2102 2.21789 11.6213 2.90476C11.0435 3.58688 10.2523 4.24845 8.97267 4.14807C8.88731 2.89685 9.37262 2.01871 9.96068 1.33342C10.5061 0.69477 11.5059 0.126466 12.4639 0Z" fill="black"/>
<path d="M16.3369 13.2118C16.3369 13.2244 16.3369 13.2355 16.3369 13.2474C15.9772 14.3366 15.4642 15.27 14.8382 16.1363C14.2668 16.9228 13.5665 17.9811 12.316 17.9811C11.2356 17.9811 10.5179 17.2864 9.4105 17.2674C8.23911 17.2484 7.59492 17.8483 6.52392 17.9993C6.40141 17.9993 6.27889 17.9993 6.15875 17.9993C5.37229 17.8855 4.73759 17.2626 4.2752 16.7015C2.91175 15.0432 1.85813 12.9012 1.66211 10.16C1.66211 9.89129 1.66211 9.62334 1.66211 9.3546C1.7451 7.3928 2.69834 5.79776 3.96536 5.02474C4.63405 4.61372 5.5533 4.26357 6.57688 4.42007C7.01555 4.48805 7.46372 4.63823 7.85655 4.78682C8.22883 4.92989 8.69438 5.18361 9.13543 5.17017C9.43421 5.16148 9.7314 5.00577 10.0325 4.8959C10.9146 4.57736 11.7794 4.21219 12.9191 4.38371C14.2889 4.5908 15.2611 5.19942 15.8618 6.13842C14.7031 6.87588 13.787 7.98719 13.9435 9.88496C14.0826 11.6088 15.0848 12.6174 16.3369 13.2118Z" fill="black"/>
</svg>
