<svg width="18" height="18" viewBox="0 0 18 18" fill="none" xmlns="http://www.w3.org/2000/svg">
<g clip-path="url(#clip0_1083_79)">
<path d="M7.515 17.91C3.24 17.145 0 13.455 0 9C0 4.05 4.05 0 9 0C13.95 0 18 4.05 18 9C18 13.455 14.76 17.145 10.485 17.91L9.99 17.505H8.01L7.515 17.91Z" fill="url(#paint0_linear_1083_79)"/>
<path d="M12.5105 11.5198L12.9155 8.99977H10.5305V7.24477C10.5305 6.52477 10.8005 5.98477 11.8805 5.98477H13.0505V3.68977C12.4205 3.59977 11.7005 3.50977 11.0705 3.50977C9.00055 3.50977 7.56055 4.76977 7.56055 7.01977V8.99977H5.31055V11.5198H7.56055V17.8648C8.05555 17.9548 8.55055 17.9998 9.04555 17.9998C9.54055 17.9998 10.0355 17.9548 10.5305 17.8648V11.5198H12.5105Z" fill="white"/>
</g>
<defs>
<linearGradient id="paint0_linear_1083_79" x1="9.00045" y1="17.374" x2="9.00045" y2="-0.0033155" gradientUnits="userSpaceOnUse">
<stop stop-color="#0062E0"/>
<stop offset="1" stop-color="#19AFFF"/>
</linearGradient>
<clipPath id="clip0_1083_79">
<rect width="18" height="18" fill="white"/>
</clipPath>
</defs>
</svg>
