<svg width="77" height="17" viewBox="0 0 77 17" fill="none" xmlns="http://www.w3.org/2000/svg">
<path d="M2.19238 9.31641C2.79747 9.31661 3.28802 9.80699 3.28809 10.4121V12.6045C3.28795 13.2095 2.79742 13.7 2.19238 13.7002H1.0957C0.490622 13.7 0.000139499 13.2096 0 12.6045V10.4121C6.73725e-05 9.80696 0.490577 9.31657 1.0957 9.31641H2.19238ZM7.67188 7.12402C8.27718 7.12402 8.76758 7.6154 8.76758 8.2207V12.6045C8.76744 13.2097 8.27709 13.7002 7.67188 13.7002H6.57617C5.97095 13.7002 5.48061 13.2097 5.48047 12.6045V8.2207C5.48047 7.6154 5.97087 7.12402 6.57617 7.12402H7.67188ZM13.1523 4.93262C13.7575 4.93273 14.248 5.40336 14.248 5.98438V12.6484C14.2478 13.2293 13.7574 13.7001 13.1523 13.7002H12.0557C11.4507 13.7 10.9602 13.2292 10.96 12.6484V5.98438C10.96 5.40344 11.4506 4.93286 12.0557 4.93262H13.1523ZM18.6318 2.74023C19.2371 2.74023 19.7274 3.20018 19.7275 3.76758V12.6729C19.7275 13.2403 19.2371 13.7002 18.6318 13.7002H17.5361C16.9309 13.7002 16.4405 13.2403 16.4404 12.6729V3.76758C16.4405 3.20018 16.9309 2.74023 17.5361 2.74023H18.6318Z" fill="white"/>
<path d="M31.1553 11.417C32.5533 10.2348 34.6011 10.2346 35.999 11.417C36.0693 11.4806 36.1094 11.5713 36.1113 11.666C36.1131 11.7606 36.0763 11.8517 36.0088 11.918L33.8193 14.127C33.7553 14.1918 33.6683 14.2284 33.5771 14.2285C33.4859 14.2285 33.3982 14.1919 33.334 14.127L31.1445 11.918C31.0769 11.8515 31.04 11.7598 31.042 11.665C31.0441 11.5704 31.085 11.4804 31.1553 11.417ZM28.2334 8.4707C31.2454 5.66893 35.9098 5.66897 38.9219 8.4707C38.9898 8.53636 39.0293 8.62623 39.0303 8.7207C39.0312 8.81519 38.9943 8.90658 38.9277 8.97363L37.6621 10.252C37.5317 10.3825 37.3203 10.3859 37.1865 10.2588C36.1975 9.36324 34.9113 8.86722 33.5771 8.86719C32.2437 8.86774 30.9572 9.36372 29.9688 10.2588C29.835 10.3856 29.6244 10.3824 29.4941 10.252L28.2285 8.97363C28.1618 8.90667 28.1251 8.81521 28.126 8.7207C28.1269 8.62635 28.1656 8.53632 28.2334 8.4707ZM25.3125 5.53125C29.9322 1.10407 37.2201 1.10421 41.8398 5.53125C41.9066 5.59692 41.9446 5.68664 41.9453 5.78027C41.9459 5.87407 41.9089 5.9647 41.8428 6.03125L40.5762 7.30957C40.4457 7.44074 40.2341 7.44254 40.1016 7.31348C38.3415 5.6402 36.0056 4.70724 33.5771 4.70703C31.1484 4.70703 28.8121 5.64009 27.0518 7.31348C26.9193 7.44287 26.7066 7.44098 26.5762 7.30957L25.3096 6.03125C25.2435 5.96465 25.2064 5.87407 25.207 5.78027C25.2077 5.68661 25.2457 5.59689 25.3125 5.53125Z" fill="white"/>
<path opacity="0.2" d="M50.3486 1.64355H71.9033C73.2147 1.64366 74.2773 2.70713 74.2773 4.01855V12.4209C74.2773 13.7323 73.2147 14.7958 71.9033 14.7959H50.3486C49.0371 14.7959 47.9736 13.7324 47.9736 12.4209V4.01855C47.9736 2.70706 49.0371 1.64355 50.3486 1.64355Z" stroke="white" stroke-width="1.096"/>
<path opacity="0.2" d="M75.5391 5.48047V9.86447C76.421 9.49317 76.9946 8.62942 76.9946 7.67247C76.9946 6.71551 76.421 5.85177 75.5391 5.48047Z" fill="white"/>
<path d="M49.9473 5.11368C49.9473 4.30661 50.6015 3.65234 51.4086 3.65234H70.6251C71.4322 3.65234 72.0864 4.3066 72.0864 5.11368V11.3207C72.0864 12.1278 71.4321 12.782 70.6251 12.782H51.4086C50.6015 12.782 49.9473 12.1278 49.9473 11.3207V5.11368Z" fill="white"/>
</svg>
